Music_GameCorner_Ch1::
Music_GameCorner_Ch1_loop::
	tempo 160
	vibrato 0, 0, 0
	duty 2
	volume 7, 7
	notetype 12, 12, 3
	octave 3
	callchannel Music_GameCorner_Ch1_loop_sub_0
	G_ 2
	F_ 2
	callchannel Music_GameCorner_Ch1_loop_sub_0
	notetype 2, 12, 3
	octave 4
	D_ 11
	rest 1
	A_ 12
	notetype 12, 12, 3
	A# 8
	callchannel Music_GameCorner_Ch1_loop_sub_2
	notetype 1, 12, 3
	A# 10
	rest 2
	octave 5
	C_ 12
	D_ 12
	D# 12
	notetype 12, 12, 3
	D_ 2
	octave 4
	G_ 2
	callchannel Music_GameCorner_Ch1_loop_sub_3
	A# 1
	rest 1
	octave 5
	F_ 2
	octave 4
	A# 1
	rest 1
	A# 1
	rest 1
	A# 1
	octave 5
	C_ 1
	octave 4
	A# 2
	A_ 2
	G_ 2
	F_ 2
	rest 2
	A# 6
	callchannel Music_GameCorner_Ch1_loop_sub_2
	A# 1
	octave 5
	C_ 1
	D_ 1
	D# 1
	F_ 2
	octave 4
	F_ 2
	callchannel Music_GameCorner_Ch1_loop_sub_3
	A# 10
	octave 5
	D_ 8
	G_ 1
	rest 1
	A# 1
	rest 1
	A_ 1
	rest 1
	A# 1
	rest 1
	A# 1
	rest 1
	callchannel Music_GameCorner_Ch1_loop_sub_1
	octave 6
	C_ 1
	rest 1
	octave 5
	callchannel Music_GameCorner_Ch1_loop_sub_1
	octave 6
	D_ 1
	rest 1
	octave 5
	A# 1
	rest 1
	octave 6
	C_ 1
	rest 1
	D_ 1
	rest 1
	octave 5
	G_ 1
	rest 1
	A_ 1
	rest 1
	A# 1
	rest 1
	F_ 1
	rest 1
	A# 1
	rest 1
	F_ 1
	rest 1
	D# 1
	rest 1
	D_ 1
	rest 1
	C_ 1
	rest 1
	octave 4
	callchannel Music_GameCorner_Ch1_loop_sub_1
	octave 6
	D_ 1
	rest 1
	octave 5
	callchannel Music_GameCorner_Ch1_loop_sub_1
	loopchannel 0, Music_GameCorner_Ch1_loop
Music_GameCorner_Ch1_loop_sub_0::
	G_ 2
	octave 4
	G_ 2
	F_ 2
	G_ 2
	A# 4
	G_ 2
	octave 5
	D_ 2
	C_ 2
	octave 4
	A# 2
	F_ 4
	octave 3
	A# 2
	A_ 2
	octave 4
	F_ 2
	D# 2
	D_ 2
	C_ 2
	octave 3
	A# 2
	octave 4
	D_ 2
	octave 3
	A# 2
	G_ 2
	A# 2
	octave 4
	D_ 2
	G_ 2
	D_ 2
	octave 3
	A# 2
	G_ 2
	octave 4
	F_ 2
	octave 3
	A# 2
	endchannel
Music_GameCorner_Ch1_loop_sub_1::
	A# 1
	rest 1
	octave 6
	C_ 1
	rest 1
	octave 5
	A# 1
	rest 1
	endchannel
Music_GameCorner_Ch1_loop_sub_2::
	octave 5
	F_ 8
	D_ 4
	D_ 1
	rest 1
	D_ 1
	D_ 1
	C_ 2
	octave 4
	A# 1
	rest 1
	endchannel
Music_GameCorner_Ch1_loop_sub_3::
	A# 1
	rest 1
	A# 1
	rest 1
	A# 1
	rest 1
	F_ 2
	A# 1
	rest 1
	endchannel
Music_GameCorner_Ch2::
Music_GameCorner_Ch2_loop::
	notetype 12, 0, 0
	rest 2
	vibrato 0, 0, 0
	duty 2
	notetype 12, 10, 0
	callchannel Music_GameCorner_Ch2_loop_sub_0
	octave 4
	G_ 1
	rest 1
	A_ 1
	rest 3
	callchannel Music_GameCorner_Ch2_loop_sub_0
	F_ 1
	rest 1
	D# 1
	rest 1
	callchannel Music_GameCorner_Ch2_loop_sub_1
	octave 3
	A# 4
	callchannel Music_GameCorner_Ch2_loop_sub_1
	F_ 4
	G_ 16
	A_ 16
	A# 16
	rest 4
	octave 3
	G_ 1
	A# 1
	F_ 1
	G_ 1
	D# 1
	D_ 1
	F_ 1
	G_ 1
	F_ 1
	D_ 1
	C_ 1
	octave 2
	A# 1
	loopchannel 0, Music_GameCorner_Ch2_loop
Music_GameCorner_Ch2_loop_sub_0::
	octave 3
	G_ 1
	rest 1
	F_ 1
	rest 3
	octave 4
	C_ 1
	rest 1
	D_ 1
	rest 1
	octave 3
	A# 1
	rest 1
	G_ 1
	rest 3
	F_ 1
	rest 1
	G_ 1
	rest 1
	A_ 1
	rest 1
	octave 4
	C_ 1
	rest 1
	octave 3
	F_ 1
	rest 1
	F_ 1
	rest 1
	G_ 1
	rest 1
	A# 3
	rest 1
	octave 4
	D_ 1
	rest 1
	G_ 1
	rest 1
	octave 3
	A# 1
	rest 1
	octave 4
	D_ 1
	rest 1
	octave 3
	F_ 1
	rest 1
	A# 1
	rest 1
	octave 4
	D_ 1
	rest 1
	octave 3
	A# 1
	rest 1
	F_ 1
	rest 1
	A# 1
	rest 1
	octave 4
	D_ 1
	rest 1
	octave 3
	A# 1
	rest 1
	endchannel
Music_GameCorner_Ch2_loop_sub_1::
	octave 4
	F_ 8
	D# 8
	D_ 8
	C_ 4
	octave 3
	F_ 4
	A# 6
	octave 4
	G_ 4
	F_ 2
	octave 3
	A# 4
	rest 4
	octave 4
	C_ 4
	D_ 4
	endchannel
Music_GameCorner_Ch3::
Music_GameCorner_Ch3_loop::
	vibrato 24, 2, 8
	notetype 12, 1, 2
	octave 3
	D# 12
	F_ 2
	G_ 2
	F_ 16
	G_ 16
	callchannel Music_GameCorner_Ch3_loop_sub_0
	callchannel Music_GameCorner_Ch3_loop_sub_0
	callchannel Music_GameCorner_Ch3_loop_sub_0
	callchannel Music_GameCorner_Ch3_loop_sub_0
	A# 16
	loopchannel 0, Music_GameCorner_Ch3_loop
Music_GameCorner_Ch3_loop_sub_0::
	G_ 8
	F_ 8
	D# 12
	F_ 2
	G_ 2
	F_ 16
	G_ 16
	endchannel
