Music_OaksLab_Ch1_sub_0::
	octave 4
	D_ 4
	F_ 4
	A_ 4
	A# 4
	D_ 4
	F_ 4
	A_ 4
	A# 4
	C_ 4
	D# 4
	G_ 4
	octave 5
	D_ 4
	octave 4
	D_ 4
	D# 4
	G_ 4
	octave 5
	D_ 4
	endchannel
Music_OaksLab_Ch1::
Music_OaksLab_Ch1_loop::
	tempo 148
	toggleperfectpitch
	vibrato 16, 1, 2
	duty 3
	volume 7, 7
	notetype 12, 11, 3
	callchannel Music_OaksLab_Ch1_sub_0
	callchannel Music_OaksLab_Ch1_sub_0
	callchannel Music_OaksLab_Ch1_sub_0
	callchannel Music_OaksLab_Ch1_sub_0
	F_ 4
	D# 4
	D_ 4
	notetype 15, 11, 3
	octave 4
	A# 16
	notetype 12, 11, 3
	A_ 2
	A# 2
	A_ 2
	A# 2
	A_ 4
	notetype 15, 11, 3
	F_ 16
	notetype 12, 11, 3
	D# 4
	G_ 4
	octave 5
	D_ 4
	notetype 15, 11, 3
	octave 4
	A# 15
	notetype 1, 11, 3
	rest 3
	notetype 12, 11, 3
	A_ 13
	notetype 15, 11, 3
	F_ 16
	loopchannel 0, Music_OaksLab_Ch1_loop
Music_OaksLab_Ch2_sub_0::
	octave 4
	D_ 8
	octave 3
	F_ 8
	G_ 14
	A# 10
	A_ 8
	G_ 16
	endchannel
Music_OaksLab_Ch2::
Music_OaksLab_Ch2_loop::
	vibrato 10, 2, 5
	duty 3
	notetype 12, 12, 4
	callchannel Music_OaksLab_Ch2_sub_0
	callchannel Music_OaksLab_Ch2_sub_0
	callchannel Music_OaksLab_Ch2_sub_0
	callchannel Music_OaksLab_Ch2_sub_0
	F_ 14
	notetype 14, 12, 4
	octave 2
	A# 15
	notetype 6, 12, 4
	rest 1
	notetype 12, 12, 4
	octave 3
	D_ 14
	notetype 14, 12, 4
	octave 2
	G_ 15
	notetype 6, 12, 4
	rest 1
	notetype 12, 12, 4
	octave 3
	D# 12
	notetype 15, 12, 4
	octave 2
	A# 16
	A_ 16
	notetype 12, 12, 4
	rest 12
	loopchannel 0, Music_OaksLab_Ch2_loop
Music_OaksLab_Ch3_sub_0::
	A# 8
	D_ 8
	D# 14
	G_ 10
	F_ 8
	D_ 16
	endchannel
Music_OaksLab_Ch3::
Music_OaksLab_Ch3_loop::
	vibrato 0, 0, 0
	notetype 12, 1, 1
	octave 4
	callchannel Music_OaksLab_Ch3_sub_0
	callchannel Music_OaksLab_Ch3_sub_0
	callchannel Music_OaksLab_Ch3_sub_0
	callchannel Music_OaksLab_Ch3_sub_0
	notetype 15, 1, 1
	octave 2
	A# 16
	notetype 12, 1, 1
	rest 12
	A# 14
	notetype 14, 1, 1
	A# 15
	notetype 6, 1, 1
	rest 1
	notetype 12, 1, 1
	octave 3
	A# 12
	notetype 15, 1, 1
	F_ 16
	notetype 12, 1, 1
	F_ 12
	notetype 15, 1, 1
	C_ 16
	loopchannel 0, Music_OaksLab_Ch3_loop
